<svg width="555" height="357" viewBox="0 0 555 357" fill="none" xmlns="http://www.w3.org/2000/svg">
<rect x="13" width="542" height="357" fill="white"/>
<rect x="13.5" y="0.5" width="139" height="356" fill="white" stroke="#DCDCDC"/>
<rect x="13.5" y="0.5" width="139" height="44" stroke="#DEDEDE"/>
<rect x="49" y="23" width="61" height="8" rx="4" fill="#D1D9E2"/>
<rect x="49" y="23" width="31" height="8" rx="4" fill="#7C8B9D"/>
<rect x="127.038" y="22" width="13.9237" height="10" rx="5" fill="#7C8B9D"/>
<rect x="49" y="12" width="43.9466" height="8" rx="4" fill="#7C8B9D"/>
<rect x="19" y="9" width="25" height="25" rx="12.5" fill="#7C8B9D"/>
<path d="M31.5 18.875C31.5 18.0696 32.1529 17.4167 32.9583 17.4167C33.7638 17.4167 34.4167 18.0696 34.4167 18.875C34.4167 19.6804 33.7638 20.3333 32.9583 20.3333C32.1529 20.3333 31.5 19.6804 31.5 18.875Z" fill="white"/>
<path fill-rule="evenodd" clip-rule="evenodd" d="M30.3078 15.0833C29.5127 15.0833 28.8804 15.0833 28.3702 15.125C27.8477 15.1677 27.4023 15.257 26.9944 15.4648C26.3358 15.8004 25.8004 16.3358 25.4648 16.9944C25.257 17.4023 25.1677 17.8477 25.125 18.3702C25.0833 18.8803 25.0833 19.5127 25.0833 20.3078V22.6922C25.0833 23.4873 25.0833 24.1196 25.125 24.6298C25.1677 25.1523 25.257 25.5977 25.4648 26.0056C25.8004 26.6642 26.3358 27.1996 26.9944 27.5352C27.4023 27.743 27.8477 27.8323 28.3702 27.875C28.8803 27.9167 29.5127 27.9167 30.3078 27.9167H32.6922C33.4873 27.9167 34.1197 27.9167 34.6298 27.875C35.1523 27.8323 35.5977 27.743 36.0056 27.5352C36.6642 27.1996 37.1996 26.6642 37.5352 26.0056C37.743 25.5977 37.8323 25.1523 37.875 24.6298C37.9167 24.1197 37.9167 23.4873 37.9167 22.6923V20.3078C37.9167 19.5127 37.9167 18.8803 37.875 18.3702C37.8323 17.8477 37.743 17.4023 37.5352 16.9944C37.1996 16.3358 36.6642 15.8004 36.0056 15.4648C35.5977 15.257 35.1523 15.1677 34.6298 15.125C34.1197 15.0833 33.4873 15.0833 32.6922 15.0833H30.3078ZM27.524 16.5043C27.74 16.3942 28.0149 16.3246 28.4652 16.2878C28.9223 16.2504 29.507 16.25 30.3333 16.25H32.6667C33.493 16.25 34.0777 16.2504 34.5348 16.2878C34.9851 16.3246 35.26 16.3942 35.476 16.5043C35.915 16.728 36.272 17.085 36.4957 17.524C36.6058 17.74 36.6754 18.0149 36.7122 18.4652C36.7496 18.9223 36.75 19.507 36.75 20.3333V22.6667C36.75 22.8757 36.75 23.0693 36.7493 23.2493L35.825 22.325C35.3694 21.8693 34.6307 21.8693 34.1751 22.325L32.8729 23.6271C32.759 23.741 32.5743 23.741 32.4604 23.6271L28.825 19.9916C28.3694 19.536 27.6307 19.536 27.1751 19.9916L26.25 20.9167V20.3333C26.25 19.507 26.2505 18.9223 26.2878 18.4652C26.3246 18.0149 26.3943 17.74 26.5043 17.524C26.728 17.085 27.085 16.728 27.524 16.5043Z" fill="white"/>
<rect x="13.5" y="134.5" width="139" height="44" stroke="#DEDEDE"/>
<rect x="49" y="157" width="61" height="8" rx="4" fill="#D1D9E2"/>
<rect x="49" y="157" width="31" height="8" rx="4" fill="#7C8B9D"/>
<rect x="127.038" y="156" width="13.9237" height="10" rx="5" fill="#7C8B9D"/>
<rect x="49" y="146" width="43.9466" height="8" rx="4" fill="#7C8B9D"/>
<rect x="19" y="143" width="25" height="25" rx="12.5" fill="#7C8B9D"/>
<path d="M31.5 152.875C31.5 152.07 32.1529 151.417 32.9583 151.417C33.7638 151.417 34.4167 152.07 34.4167 152.875C34.4167 153.68 33.7638 154.333 32.9583 154.333C32.1529 154.333 31.5 153.68 31.5 152.875Z" fill="white"/>
<path fill-rule="evenodd" clip-rule="evenodd" d="M30.3078 149.083C29.5127 149.083 28.8804 149.083 28.3702 149.125C27.8477 149.168 27.4023 149.257 26.9944 149.465C26.3358 149.8 25.8004 150.336 25.4648 150.994C25.257 151.402 25.1677 151.848 25.125 152.37C25.0833 152.88 25.0833 153.513 25.0833 154.308V156.692C25.0833 157.487 25.0833 158.12 25.125 158.63C25.1677 159.152 25.257 159.598 25.4648 160.006C25.8004 160.664 26.3358 161.2 26.9944 161.535C27.4023 161.743 27.8477 161.832 28.3702 161.875C28.8803 161.917 29.5127 161.917 30.3078 161.917H32.6922C33.4873 161.917 34.1197 161.917 34.6298 161.875C35.1523 161.832 35.5977 161.743 36.0056 161.535C36.6642 161.2 37.1996 160.664 37.5352 160.006C37.743 159.598 37.8323 159.152 37.875 158.63C37.9167 158.12 37.9167 157.487 37.9167 156.692V154.308C37.9167 153.513 37.9167 152.88 37.875 152.37C37.8323 151.848 37.743 151.402 37.5352 150.994C37.1996 150.336 36.6642 149.8 36.0056 149.465C35.5977 149.257 35.1523 149.168 34.6298 149.125C34.1197 149.083 33.4873 149.083 32.6922 149.083H30.3078ZM27.524 150.504C27.74 150.394 28.0149 150.325 28.4652 150.288C28.9223 150.25 29.507 150.25 30.3333 150.25H32.6667C33.493 150.25 34.0777 150.25 34.5348 150.288C34.9851 150.325 35.26 150.394 35.476 150.504C35.915 150.728 36.272 151.085 36.4957 151.524C36.6058 151.74 36.6754 152.015 36.7122 152.465C36.7496 152.922 36.75 153.507 36.75 154.333V156.667C36.75 156.876 36.75 157.069 36.7493 157.249L35.825 156.325C35.3694 155.869 34.6307 155.869 34.1751 156.325L32.8729 157.627C32.759 157.741 32.5743 157.741 32.4604 157.627L28.825 153.992C28.3694 153.536 27.6307 153.536 27.1751 153.992L26.25 154.917V154.333C26.25 153.507 26.2505 152.922 26.2878 152.465C26.3246 152.015 26.3943 151.74 26.5043 151.524C26.728 151.085 27.085 150.728 27.524 150.504Z" fill="white"/>
<rect x="13.5" y="44.5" width="139" height="45" stroke="#DEDEDE"/>
<rect x="49" y="67" width="61" height="8" rx="4" fill="#D1D9E2"/>
<rect x="49" y="67" width="31" height="8" rx="4" fill="#7C8B9D"/>
<rect x="127.038" y="66" width="13.9237" height="10" rx="5" fill="#7C8B9D"/>
<rect x="49" y="56" width="43.9466" height="8" rx="4" fill="#7C8B9D"/>
<rect x="19" y="53" width="25" height="25" rx="12.5" fill="#7C8B9D"/>
<path d="M31.5 62.875C31.5 62.0696 32.1529 61.4167 32.9583 61.4167C33.7638 61.4167 34.4167 62.0696 34.4167 62.875C34.4167 63.6804 33.7638 64.3333 32.9583 64.3333C32.1529 64.3333 31.5 63.6804 31.5 62.875Z" fill="white"/>
<path fill-rule="evenodd" clip-rule="evenodd" d="M30.3078 59.0833C29.5127 59.0833 28.8804 59.0833 28.3702 59.125C27.8477 59.1677 27.4023 59.257 26.9944 59.4648C26.3358 59.8004 25.8004 60.3358 25.4648 60.9944C25.257 61.4023 25.1677 61.8477 25.125 62.3702C25.0833 62.8803 25.0833 63.5127 25.0833 64.3078V66.6922C25.0833 67.4873 25.0833 68.1196 25.125 68.6298C25.1677 69.1523 25.257 69.5977 25.4648 70.0056C25.8004 70.6642 26.3358 71.1996 26.9944 71.5352C27.4023 71.743 27.8477 71.8323 28.3702 71.875C28.8803 71.9167 29.5127 71.9167 30.3078 71.9167H32.6922C33.4873 71.9167 34.1197 71.9167 34.6298 71.875C35.1523 71.8323 35.5977 71.743 36.0056 71.5352C36.6642 71.1996 37.1996 70.6642 37.5352 70.0056C37.743 69.5977 37.8323 69.1523 37.875 68.6298C37.9167 68.1197 37.9167 67.4873 37.9167 66.6923V64.3078C37.9167 63.5127 37.9167 62.8803 37.875 62.3702C37.8323 61.8477 37.743 61.4023 37.5352 60.9944C37.1996 60.3358 36.6642 59.8004 36.0056 59.4648C35.5977 59.257 35.1523 59.1677 34.6298 59.125C34.1197 59.0833 33.4873 59.0833 32.6922 59.0833H30.3078ZM27.524 60.5043C27.74 60.3942 28.0149 60.3246 28.4652 60.2878C28.9223 60.2504 29.507 60.25 30.3333 60.25H32.6667C33.493 60.25 34.0777 60.2504 34.5348 60.2878C34.9851 60.3246 35.26 60.3942 35.476 60.5043C35.915 60.728 36.272 61.085 36.4957 61.524C36.6058 61.74 36.6754 62.0149 36.7122 62.4652C36.7496 62.9223 36.75 63.507 36.75 64.3333V66.6667C36.75 66.8757 36.75 67.0693 36.7493 67.2493L35.825 66.325C35.3694 65.8693 34.6307 65.8693 34.1751 66.325L32.8729 67.6271C32.759 67.741 32.5743 67.741 32.4604 67.6271L28.825 63.9916C28.3694 63.536 27.6307 63.536 27.1751 63.9916L26.25 64.9167V64.3333C26.25 63.507 26.2505 62.9223 26.2878 62.4652C26.3246 62.0149 26.3943 61.74 26.5043 61.524C26.728 61.085 27.085 60.728 27.524 60.5043Z" fill="white"/>
<rect x="13.5" y="89.5" width="139" height="45" stroke="#DEDEDE"/>
<rect x="49" y="112" width="61" height="8" rx="4" fill="#D1D9E2"/>
<rect x="49" y="112" width="31" height="8" rx="4" fill="#7C8B9D"/>
<rect x="127.038" y="111" width="13.9237" height="10" rx="5" fill="#7C8B9D"/>
<rect x="49" y="101" width="43.9466" height="8" rx="4" fill="#7C8B9D"/>
<rect x="19" y="98" width="25" height="25" rx="12.5" fill="#7C8B9D"/>
<path d="M31.5 107.875C31.5 107.07 32.1529 106.417 32.9583 106.417C33.7638 106.417 34.4167 107.07 34.4167 107.875C34.4167 108.68 33.7638 109.333 32.9583 109.333C32.1529 109.333 31.5 108.68 31.5 107.875Z" fill="white"/>
<path fill-rule="evenodd" clip-rule="evenodd" d="M30.3078 104.083C29.5127 104.083 28.8804 104.083 28.3702 104.125C27.8477 104.168 27.4023 104.257 26.9944 104.465C26.3358 104.8 25.8004 105.336 25.4648 105.994C25.257 106.402 25.1677 106.848 25.125 107.37C25.0833 107.88 25.0833 108.513 25.0833 109.308V111.692C25.0833 112.487 25.0833 113.12 25.125 113.63C25.1677 114.152 25.257 114.598 25.4648 115.006C25.8004 115.664 26.3358 116.2 26.9944 116.535C27.4023 116.743 27.8477 116.832 28.3702 116.875C28.8803 116.917 29.5127 116.917 30.3078 116.917H32.6922C33.4873 116.917 34.1197 116.917 34.6298 116.875C35.1523 116.832 35.5977 116.743 36.0056 116.535C36.6642 116.2 37.1996 115.664 37.5352 115.006C37.743 114.598 37.8323 114.152 37.875 113.63C37.9167 113.12 37.9167 112.487 37.9167 111.692V109.308C37.9167 108.513 37.9167 107.88 37.875 107.37C37.8323 106.848 37.743 106.402 37.5352 105.994C37.1996 105.336 36.6642 104.8 36.0056 104.465C35.5977 104.257 35.1523 104.168 34.6298 104.125C34.1197 104.083 33.4873 104.083 32.6922 104.083H30.3078ZM27.524 105.504C27.74 105.394 28.0149 105.325 28.4652 105.288C28.9223 105.25 29.507 105.25 30.3333 105.25H32.6667C33.493 105.25 34.0777 105.25 34.5348 105.288C34.9851 105.325 35.26 105.394 35.476 105.504C35.915 105.728 36.272 106.085 36.4957 106.524C36.6058 106.74 36.6754 107.015 36.7122 107.465C36.7496 107.922 36.75 108.507 36.75 109.333V111.667C36.75 111.876 36.75 112.069 36.7493 112.249L35.825 111.325C35.3694 110.869 34.6307 110.869 34.1751 111.325L32.8729 112.627C32.759 112.741 32.5743 112.741 32.4604 112.627L28.825 108.992C28.3694 108.536 27.6307 108.536 27.1751 108.992L26.25 109.917V109.333C26.25 108.507 26.2505 107.922 26.2878 107.465C26.3246 107.015 26.3943 106.74 26.5043 106.524C26.728 106.085 27.085 105.728 27.524 105.504Z" fill="white"/>
<rect x="13.5" y="178.5" width="139" height="44" stroke="#DEDEDE"/>
<rect x="49" y="201" width="61" height="8" rx="4" fill="#D1D9E2"/>
<rect x="49" y="201" width="31" height="8" rx="4" fill="#7C8B9D"/>
<rect x="127.038" y="200" width="13.9237" height="10" rx="5" fill="#7C8B9D"/>
<rect x="49" y="190" width="43.9466" height="8" rx="4" fill="#7C8B9D"/>
<rect x="19" y="187" width="25" height="25" rx="12.5" fill="#7C8B9D"/>
<path d="M31.5 196.875C31.5 196.07 32.1529 195.417 32.9583 195.417C33.7638 195.417 34.4167 196.07 34.4167 196.875C34.4167 197.68 33.7638 198.333 32.9583 198.333C32.1529 198.333 31.5 197.68 31.5 196.875Z" fill="white"/>
<path fill-rule="evenodd" clip-rule="evenodd" d="M30.3078 193.083C29.5127 193.083 28.8804 193.083 28.3702 193.125C27.8477 193.168 27.4023 193.257 26.9944 193.465C26.3358 193.8 25.8004 194.336 25.4648 194.994C25.257 195.402 25.1677 195.848 25.125 196.37C25.0833 196.88 25.0833 197.513 25.0833 198.308V200.692C25.0833 201.487 25.0833 202.12 25.125 202.63C25.1677 203.152 25.257 203.598 25.4648 204.006C25.8004 204.664 26.3358 205.2 26.9944 205.535C27.4023 205.743 27.8477 205.832 28.3702 205.875C28.8803 205.917 29.5127 205.917 30.3078 205.917H32.6922C33.4873 205.917 34.1197 205.917 34.6298 205.875C35.1523 205.832 35.5977 205.743 36.0056 205.535C36.6642 205.2 37.1996 204.664 37.5352 204.006C37.743 203.598 37.8323 203.152 37.875 202.63C37.9167 202.12 37.9167 201.487 37.9167 200.692V198.308C37.9167 197.513 37.9167 196.88 37.875 196.37C37.8323 195.848 37.743 195.402 37.5352 194.994C37.1996 194.336 36.6642 193.8 36.0056 193.465C35.5977 193.257 35.1523 193.168 34.6298 193.125C34.1197 193.083 33.4873 193.083 32.6922 193.083H30.3078ZM27.524 194.504C27.74 194.394 28.0149 194.325 28.4652 194.288C28.9223 194.25 29.507 194.25 30.3333 194.25H32.6667C33.493 194.25 34.0777 194.25 34.5348 194.288C34.9851 194.325 35.26 194.394 35.476 194.504C35.915 194.728 36.272 195.085 36.4957 195.524C36.6058 195.74 36.6754 196.015 36.7122 196.465C36.7496 196.922 36.75 197.507 36.75 198.333V200.667C36.75 200.876 36.75 201.069 36.7493 201.249L35.825 200.325C35.3694 199.869 34.6307 199.869 34.1751 200.325L32.8729 201.627C32.759 201.741 32.5743 201.741 32.4604 201.627L28.825 197.992C28.3694 197.536 27.6307 197.536 27.1751 197.992L26.25 198.917V198.333C26.25 197.507 26.2505 196.922 26.2878 196.465C26.3246 196.015 26.3943 195.74 26.5043 195.524C26.728 195.085 27.085 194.728 27.524 194.504Z" fill="white"/>
<rect x="13.5" y="312.5" width="139" height="44" stroke="#DEDEDE"/>
<rect x="49" y="335" width="61" height="8" rx="4" fill="#D1D9E2"/>
<rect x="49" y="335" width="31" height="8" rx="4" fill="#7C8B9D"/>
<rect x="127.038" y="334" width="13.9237" height="10" rx="5" fill="#7C8B9D"/>
<rect x="49" y="324" width="43.9466" height="8" rx="4" fill="#7C8B9D"/>
<rect x="19" y="321" width="25" height="25" rx="12.5" fill="#7C8B9D"/>
<path d="M31.5 330.875C31.5 330.07 32.1529 329.417 32.9583 329.417C33.7638 329.417 34.4167 330.07 34.4167 330.875C34.4167 331.68 33.7638 332.333 32.9583 332.333C32.1529 332.333 31.5 331.68 31.5 330.875Z" fill="white"/>
<path fill-rule="evenodd" clip-rule="evenodd" d="M30.3078 327.083C29.5127 327.083 28.8804 327.083 28.3702 327.125C27.8477 327.168 27.4023 327.257 26.9944 327.465C26.3358 327.8 25.8004 328.336 25.4648 328.994C25.257 329.402 25.1677 329.848 25.125 330.37C25.0833 330.88 25.0833 331.513 25.0833 332.308V334.692C25.0833 335.487 25.0833 336.12 25.125 336.63C25.1677 337.152 25.257 337.598 25.4648 338.006C25.8004 338.664 26.3358 339.2 26.9944 339.535C27.4023 339.743 27.8477 339.832 28.3702 339.875C28.8803 339.917 29.5127 339.917 30.3078 339.917H32.6922C33.4873 339.917 34.1197 339.917 34.6298 339.875C35.1523 339.832 35.5977 339.743 36.0056 339.535C36.6642 339.2 37.1996 338.664 37.5352 338.006C37.743 337.598 37.8323 337.152 37.875 336.63C37.9167 336.12 37.9167 335.487 37.9167 334.692V332.308C37.9167 331.513 37.9167 330.88 37.875 330.37C37.8323 329.848 37.743 329.402 37.5352 328.994C37.1996 328.336 36.6642 327.8 36.0056 327.465C35.5977 327.257 35.1523 327.168 34.6298 327.125C34.1197 327.083 33.4873 327.083 32.6922 327.083H30.3078ZM27.524 328.504C27.74 328.394 28.0149 328.325 28.4652 328.288C28.9223 328.25 29.507 328.25 30.3333 328.25H32.6667C33.493 328.25 34.0777 328.25 34.5348 328.288C34.9851 328.325 35.26 328.394 35.476 328.504C35.915 328.728 36.272 329.085 36.4957 329.524C36.6058 329.74 36.6754 330.015 36.7122 330.465C36.7496 330.922 36.75 331.507 36.75 332.333V334.667C36.75 334.876 36.75 335.069 36.7493 335.249L35.825 334.325C35.3694 333.869 34.6307 333.869 34.1751 334.325L32.8729 335.627C32.759 335.741 32.5743 335.741 32.4604 335.627L28.825 331.992C28.3694 331.536 27.6307 331.536 27.1751 331.992L26.25 332.917V332.333C26.25 331.507 26.2505 330.922 26.2878 330.465C26.3246 330.015 26.3943 329.74 26.5043 329.524C26.728 329.085 27.085 328.728 27.524 328.504Z" fill="white"/>
<rect x="13.5" y="222.5" width="139" height="45" stroke="#DEDEDE"/>
<rect x="49" y="245" width="61" height="8" rx="4" fill="#D1D9E2"/>
<rect x="49" y="245" width="31" height="8" rx="4" fill="#7C8B9D"/>
<rect x="127.038" y="244" width="13.9237" height="10" rx="5" fill="#7C8B9D"/>
<rect x="49" y="234" width="43.9466" height="8" rx="4" fill="#7C8B9D"/>
<rect x="19" y="231" width="25" height="25" rx="12.5" fill="#7C8B9D"/>
<path d="M31.5 240.875C31.5 240.07 32.1529 239.417 32.9583 239.417C33.7638 239.417 34.4167 240.07 34.4167 240.875C34.4167 241.68 33.7638 242.333 32.9583 242.333C32.1529 242.333 31.5 241.68 31.5 240.875Z" fill="white"/>
<path fill-rule="evenodd" clip-rule="evenodd" d="M30.3078 237.083C29.5127 237.083 28.8804 237.083 28.3702 237.125C27.8477 237.168 27.4023 237.257 26.9944 237.465C26.3358 237.8 25.8004 238.336 25.4648 238.994C25.257 239.402 25.1677 239.848 25.125 240.37C25.0833 240.88 25.0833 241.513 25.0833 242.308V244.692C25.0833 245.487 25.0833 246.12 25.125 246.63C25.1677 247.152 25.257 247.598 25.4648 248.006C25.8004 248.664 26.3358 249.2 26.9944 249.535C27.4023 249.743 27.8477 249.832 28.3702 249.875C28.8803 249.917 29.5127 249.917 30.3078 249.917H32.6922C33.4873 249.917 34.1197 249.917 34.6298 249.875C35.1523 249.832 35.5977 249.743 36.0056 249.535C36.6642 249.2 37.1996 248.664 37.5352 248.006C37.743 247.598 37.8323 247.152 37.875 246.63C37.9167 246.12 37.9167 245.487 37.9167 244.692V242.308C37.9167 241.513 37.9167 240.88 37.875 240.37C37.8323 239.848 37.743 239.402 37.5352 238.994C37.1996 238.336 36.6642 237.8 36.0056 237.465C35.5977 237.257 35.1523 237.168 34.6298 237.125C34.1197 237.083 33.4873 237.083 32.6922 237.083H30.3078ZM27.524 238.504C27.74 238.394 28.0149 238.325 28.4652 238.288C28.9223 238.25 29.507 238.25 30.3333 238.25H32.6667C33.493 238.25 34.0777 238.25 34.5348 238.288C34.9851 238.325 35.26 238.394 35.476 238.504C35.915 238.728 36.272 239.085 36.4957 239.524C36.6058 239.74 36.6754 240.015 36.7122 240.465C36.7496 240.922 36.75 241.507 36.75 242.333V244.667C36.75 244.876 36.75 245.069 36.7493 245.249L35.825 244.325C35.3694 243.869 34.6307 243.869 34.1751 244.325L32.8729 245.627C32.759 245.741 32.5743 245.741 32.4604 245.627L28.825 241.992C28.3694 241.536 27.6307 241.536 27.1751 241.992L26.25 242.917V242.333C26.25 241.507 26.2505 240.922 26.2878 240.465C26.3246 240.015 26.3943 239.74 26.5043 239.524C26.728 239.085 27.085 238.728 27.524 238.504Z" fill="white"/>
<rect x="13.5" y="267.5" width="139" height="45" stroke="#DEDEDE"/>
<rect x="49" y="290" width="61" height="8" rx="4" fill="#D1D9E2"/>
<rect x="49" y="290" width="31" height="8" rx="4" fill="#7C8B9D"/>
<rect x="127.038" y="289" width="13.9237" height="10" rx="5" fill="#7C8B9D"/>
<rect x="49" y="279" width="43.9466" height="8" rx="4" fill="#7C8B9D"/>
<rect x="19" y="276" width="25" height="25" rx="12.5" fill="#7C8B9D"/>
<path d="M31.5 285.875C31.5 285.07 32.1529 284.417 32.9583 284.417C33.7638 284.417 34.4167 285.07 34.4167 285.875C34.4167 286.68 33.7638 287.333 32.9583 287.333C32.1529 287.333 31.5 286.68 31.5 285.875Z" fill="white"/>
<path fill-rule="evenodd" clip-rule="evenodd" d="M30.3078 282.083C29.5127 282.083 28.8804 282.083 28.3702 282.125C27.8477 282.168 27.4023 282.257 26.9944 282.465C26.3358 282.8 25.8004 283.336 25.4648 283.994C25.257 284.402 25.1677 284.848 25.125 285.37C25.0833 285.88 25.0833 286.513 25.0833 287.308V289.692C25.0833 290.487 25.0833 291.12 25.125 291.63C25.1677 292.152 25.257 292.598 25.4648 293.006C25.8004 293.664 26.3358 294.2 26.9944 294.535C27.4023 294.743 27.8477 294.832 28.3702 294.875C28.8803 294.917 29.5127 294.917 30.3078 294.917H32.6922C33.4873 294.917 34.1197 294.917 34.6298 294.875C35.1523 294.832 35.5977 294.743 36.0056 294.535C36.6642 294.2 37.1996 293.664 37.5352 293.006C37.743 292.598 37.8323 292.152 37.875 291.63C37.9167 291.12 37.9167 290.487 37.9167 289.692V287.308C37.9167 286.513 37.9167 285.88 37.875 285.37C37.8323 284.848 37.743 284.402 37.5352 283.994C37.1996 283.336 36.6642 282.8 36.0056 282.465C35.5977 282.257 35.1523 282.168 34.6298 282.125C34.1197 282.083 33.4873 282.083 32.6922 282.083H30.3078ZM27.524 283.504C27.74 283.394 28.0149 283.325 28.4652 283.288C28.9223 283.25 29.507 283.25 30.3333 283.25H32.6667C33.493 283.25 34.0777 283.25 34.5348 283.288C34.9851 283.325 35.26 283.394 35.476 283.504C35.915 283.728 36.272 284.085 36.4957 284.524C36.6058 284.74 36.6754 285.015 36.7122 285.465C36.7496 285.922 36.75 286.507 36.75 287.333V289.667C36.75 289.876 36.75 290.069 36.7493 290.249L35.825 289.325C35.3694 288.869 34.6307 288.869 34.1751 289.325L32.8729 290.627C32.759 290.741 32.5743 290.741 32.4604 290.627L28.825 286.992C28.3694 286.536 27.6307 286.536 27.1751 286.992L26.25 287.917V287.333C26.25 286.507 26.2505 285.922 26.2878 285.465C26.3246 285.015 26.3943 284.74 26.5043 284.524C26.728 284.085 27.085 283.728 27.524 283.504Z" fill="white"/>
<rect width="402" height="357" transform="translate(153)" fill="#D1D9E2"/>
<path d="M354 171C354 168.699 355.865 166.833 358.167 166.833C360.468 166.833 362.333 168.699 362.333 171C362.333 173.301 360.468 175.167 358.167 175.167C355.865 175.167 354 173.301 354 171Z" fill="#7C8B9D"/>
<path fill-rule="evenodd" clip-rule="evenodd" d="M350.594 160.167C348.322 160.167 346.515 160.167 345.058 160.286C343.565 160.408 342.292 160.663 341.127 161.257C339.245 162.215 337.715 163.745 336.757 165.627C336.163 166.792 335.908 168.065 335.786 169.558C335.667 171.015 335.667 172.822 335.667 175.094V181.906C335.667 184.178 335.667 185.985 335.786 187.442C335.908 188.935 336.163 190.208 336.757 191.373C337.715 193.255 339.245 194.785 341.127 195.743C342.292 196.337 343.565 196.592 345.058 196.714C346.515 196.833 348.322 196.833 350.594 196.833H357.406C359.678 196.833 361.485 196.833 362.942 196.714C364.435 196.592 365.708 196.337 366.873 195.743C368.755 194.785 370.285 193.255 371.243 191.373C371.837 190.208 372.092 188.935 372.214 187.442C372.333 185.985 372.333 184.178 372.333 181.906V175.094C372.333 172.822 372.333 171.015 372.214 169.558C372.092 168.065 371.837 166.792 371.243 165.627C370.285 163.745 368.755 162.215 366.873 161.257C365.708 160.663 364.435 160.408 362.942 160.286C361.485 160.167 359.678 160.167 357.406 160.167H350.594ZM342.64 164.227C343.257 163.912 344.043 163.713 345.329 163.608C346.635 163.501 348.306 163.5 350.667 163.5H357.333C359.694 163.5 361.365 163.501 362.671 163.608C363.957 163.713 364.743 163.912 365.36 164.227C366.614 164.866 367.634 165.886 368.273 167.14C368.588 167.757 368.787 168.543 368.892 169.829C368.999 171.135 369 172.806 369 175.167V181.833C369 182.431 369 182.984 368.998 183.498L366.357 180.857C365.055 179.555 362.945 179.555 361.643 180.857L357.923 184.577C357.597 184.903 357.07 184.903 356.744 184.577L346.357 174.19C345.055 172.889 342.945 172.889 341.643 174.19L339 176.833V175.167C339 172.806 339.001 171.135 339.108 169.829C339.213 168.543 339.412 167.757 339.727 167.14C340.366 165.886 341.386 164.866 342.64 164.227Z" fill="#7C8B9D"/>
<path d="M354 171C354 168.699 355.865 166.833 358.167 166.833C360.468 166.833 362.333 168.699 362.333 171C362.333 173.301 360.468 175.167 358.167 175.167C355.865 175.167 354 173.301 354 171Z" stroke="#7C8B9D" stroke-width="1.67"/>
<path fill-rule="evenodd" clip-rule="evenodd" d="M350.594 160.167C348.322 160.167 346.515 160.167 345.058 160.286C343.565 160.408 342.292 160.663 341.127 161.257C339.245 162.215 337.715 163.745 336.757 165.627C336.163 166.792 335.908 168.065 335.786 169.558C335.667 171.015 335.667 172.822 335.667 175.094V181.906C335.667 184.178 335.667 185.985 335.786 187.442C335.908 188.935 336.163 190.208 336.757 191.373C337.715 193.255 339.245 194.785 341.127 195.743C342.292 196.337 343.565 196.592 345.058 196.714C346.515 196.833 348.322 196.833 350.594 196.833H357.406C359.678 196.833 361.485 196.833 362.942 196.714C364.435 196.592 365.708 196.337 366.873 195.743C368.755 194.785 370.285 193.255 371.243 191.373C371.837 190.208 372.092 188.935 372.214 187.442C372.333 185.985 372.333 184.178 372.333 181.906V175.094C372.333 172.822 372.333 171.015 372.214 169.558C372.092 168.065 371.837 166.792 371.243 165.627C370.285 163.745 368.755 162.215 366.873 161.257C365.708 160.663 364.435 160.408 362.942 160.286C361.485 160.167 359.678 160.167 357.406 160.167H350.594ZM342.64 164.227C343.257 163.912 344.043 163.713 345.329 163.608C346.635 163.501 348.306 163.5 350.667 163.5H357.333C359.694 163.5 361.365 163.501 362.671 163.608C363.957 163.713 364.743 163.912 365.36 164.227C366.614 164.866 367.634 165.886 368.273 167.14C368.588 167.757 368.787 168.543 368.892 169.829C368.999 171.135 369 172.806 369 175.167V181.833C369 182.431 369 182.984 368.998 183.498L366.357 180.857C365.055 179.555 362.945 179.555 361.643 180.857L357.923 184.577C357.597 184.903 357.07 184.903 356.744 184.577L346.357 174.19C345.055 172.889 342.945 172.889 341.643 174.19L339 176.833V175.167C339 172.806 339.001 171.135 339.108 169.829C339.213 168.543 339.412 167.757 339.727 167.14C340.366 165.886 341.386 164.866 342.64 164.227Z" stroke="#7C8B9D" stroke-width="1.67"/>
<rect x="167" y="313" width="134.179" height="10" rx="5" fill="#7C8B9D"/>
<rect x="361" y="313" width="31" height="10" rx="5" fill="#D1D9E2"/>
<rect x="167" y="330" width="191.078" height="12" rx="6" fill="#7C8B9D"/>
</svg>
