<svg width="542" height="357" viewBox="0 0 542 357" fill="none" xmlns="http://www.w3.org/2000/svg">
<rect width="542" height="357" fill="white"/>
<rect x="0.5" y="0.5" width="139" height="356" fill="white" stroke="#DCDCDC"/>
<rect x="158" y="14" width="109" height="81" rx="10" fill="#D1D9E2"/>
<path d="M212.5 47C212.5 44.6988 214.365 42.8333 216.667 42.8333C218.968 42.8333 220.833 44.6988 220.833 47C220.833 49.3012 218.968 51.1667 216.667 51.1667C214.365 51.1667 212.5 49.3012 212.5 47Z" fill="#7C8B9D"/>
<path fill-rule="evenodd" clip-rule="evenodd" d="M209.094 36.1667C206.822 36.1667 205.015 36.1666 203.558 36.2857C202.065 36.4077 200.792 36.6628 199.627 37.2566C197.745 38.2153 196.215 39.7451 195.257 41.6268C194.663 42.7922 194.408 44.065 194.286 45.5576C194.167 47.0153 194.167 48.822 194.167 51.0937V57.9063C194.167 60.178 194.167 61.9847 194.286 63.4424C194.408 64.935 194.663 66.2078 195.257 67.3732C196.215 69.2549 197.745 70.7847 199.627 71.7434C200.792 72.3372 202.065 72.5923 203.558 72.7143C205.015 72.8334 206.822 72.8334 209.094 72.8333H215.906C218.178 72.8334 219.985 72.8334 221.442 72.7143C222.935 72.5923 224.208 72.3372 225.373 71.7434C227.255 70.7847 228.785 69.2549 229.743 67.3732C230.337 66.2078 230.592 64.935 230.714 63.4424C230.833 61.9848 230.833 60.1781 230.833 57.9065V51.0937C230.833 48.822 230.833 47.0152 230.714 45.5576C230.592 44.065 230.337 42.7922 229.743 41.6268C228.785 39.7451 227.255 38.2153 225.373 37.2566C224.208 36.6628 222.935 36.4077 221.442 36.2857C219.985 36.1666 218.178 36.1667 215.906 36.1667H209.094ZM201.14 40.2266C201.757 39.9122 202.543 39.7131 203.829 39.608C205.135 39.5013 206.806 39.5 209.167 39.5H215.833C218.194 39.5 219.865 39.5013 221.171 39.608C222.457 39.7131 223.243 39.9122 223.86 40.2266C225.114 40.8658 226.134 41.8857 226.773 43.1401C227.088 43.7573 227.287 44.5425 227.392 45.8291C227.499 47.1351 227.5 48.8056 227.5 51.1667V57.8333C227.5 58.4307 227.5 58.9838 227.498 59.4981L224.857 56.857C223.555 55.5553 221.445 55.5553 220.143 56.857L216.423 60.5774C216.097 60.9029 215.57 60.9029 215.244 60.5774L204.857 50.1904C203.555 48.8886 201.445 48.8886 200.143 50.1904L197.5 52.8333V51.1667C197.5 48.8056 197.501 47.1351 197.608 45.8291C197.713 44.5425 197.912 43.7573 198.227 43.1401C198.866 41.8857 199.886 40.8658 201.14 40.2266Z" fill="#7C8B9D"/>
<path d="M212.5 47C212.5 44.6988 214.365 42.8333 216.667 42.8333C218.968 42.8333 220.833 44.6988 220.833 47C220.833 49.3012 218.968 51.1667 216.667 51.1667C214.365 51.1667 212.5 49.3012 212.5 47Z" stroke="#7C8B9D" stroke-width="1.67"/>
<path fill-rule="evenodd" clip-rule="evenodd" d="M209.094 36.1667C206.822 36.1667 205.015 36.1666 203.558 36.2857C202.065 36.4077 200.792 36.6628 199.627 37.2566C197.745 38.2153 196.215 39.7451 195.257 41.6268C194.663 42.7922 194.408 44.065 194.286 45.5576C194.167 47.0153 194.167 48.822 194.167 51.0937V57.9063C194.167 60.178 194.167 61.9847 194.286 63.4424C194.408 64.935 194.663 66.2078 195.257 67.3732C196.215 69.2549 197.745 70.7847 199.627 71.7434C200.792 72.3372 202.065 72.5923 203.558 72.7143C205.015 72.8334 206.822 72.8334 209.094 72.8333H215.906C218.178 72.8334 219.985 72.8334 221.442 72.7143C222.935 72.5923 224.208 72.3372 225.373 71.7434C227.255 70.7847 228.785 69.2549 229.743 67.3732C230.337 66.2078 230.592 64.935 230.714 63.4424C230.833 61.9848 230.833 60.1781 230.833 57.9065V51.0937C230.833 48.822 230.833 47.0152 230.714 45.5576C230.592 44.065 230.337 42.7922 229.743 41.6268C228.785 39.7451 227.255 38.2153 225.373 37.2566C224.208 36.6628 222.935 36.4077 221.442 36.2857C219.985 36.1666 218.178 36.1667 215.906 36.1667H209.094ZM201.14 40.2266C201.757 39.9122 202.543 39.7131 203.829 39.608C205.135 39.5013 206.806 39.5 209.167 39.5H215.833C218.194 39.5 219.865 39.5013 221.171 39.608C222.457 39.7131 223.243 39.9122 223.86 40.2266C225.114 40.8658 226.134 41.8857 226.773 43.1401C227.088 43.7573 227.287 44.5425 227.392 45.8291C227.499 47.1351 227.5 48.8056 227.5 51.1667V57.8333C227.5 58.4307 227.5 58.9838 227.498 59.4981L224.857 56.857C223.555 55.5553 221.445 55.5553 220.143 56.857L216.423 60.5774C216.097 60.9029 215.57 60.9029 215.244 60.5774L204.857 50.1904C203.555 48.8886 201.445 48.8886 200.143 50.1904L197.5 52.8333V51.1667C197.5 48.8056 197.501 47.1351 197.608 45.8291C197.713 44.5425 197.912 43.7573 198.227 43.1401C198.866 41.8857 199.886 40.8658 201.14 40.2266Z" stroke="#7C8B9D" stroke-width="1.67"/>
<rect x="274" y="14" width="137" height="118" rx="10" fill="#D1D9E2"/>
<path d="M342.5 65.5C342.5 63.1988 344.365 61.3333 346.667 61.3333C348.968 61.3333 350.833 63.1988 350.833 65.5C350.833 67.8012 348.968 69.6667 346.667 69.6667C344.365 69.6667 342.5 67.8012 342.5 65.5Z" fill="#7C8B9D"/>
<path fill-rule="evenodd" clip-rule="evenodd" d="M339.094 54.6667C336.822 54.6667 335.015 54.6666 333.558 54.7857C332.065 54.9077 330.792 55.1628 329.627 55.7566C327.745 56.7153 326.215 58.2451 325.257 60.1268C324.663 61.2922 324.408 62.565 324.286 64.0576C324.167 65.5153 324.167 67.322 324.167 69.5937V76.4063C324.167 78.678 324.167 80.4847 324.286 81.9424C324.408 83.435 324.663 84.7078 325.257 85.8732C326.215 87.7549 327.745 89.2847 329.627 90.2434C330.792 90.8372 332.065 91.0923 333.558 91.2143C335.015 91.3334 336.822 91.3334 339.094 91.3333H345.906C348.178 91.3334 349.985 91.3334 351.442 91.2143C352.935 91.0923 354.208 90.8372 355.373 90.2434C357.255 89.2847 358.785 87.7549 359.743 85.8732C360.337 84.7078 360.592 83.435 360.714 81.9424C360.833 80.4848 360.833 78.6781 360.833 76.4065V69.5937C360.833 67.322 360.833 65.5152 360.714 64.0576C360.592 62.565 360.337 61.2922 359.743 60.1268C358.785 58.2451 357.255 56.7153 355.373 55.7566C354.208 55.1628 352.935 54.9077 351.442 54.7857C349.985 54.6666 348.178 54.6667 345.906 54.6667H339.094ZM331.14 58.7266C331.757 58.4122 332.543 58.2131 333.829 58.108C335.135 58.0013 336.806 58 339.167 58H345.833C348.194 58 349.865 58.0013 351.171 58.108C352.457 58.2131 353.243 58.4122 353.86 58.7266C355.114 59.3658 356.134 60.3857 356.773 61.6401C357.088 62.2573 357.287 63.0425 357.392 64.3291C357.499 65.6351 357.5 67.3056 357.5 69.6667V76.3333C357.5 76.9307 357.5 77.4838 357.498 77.9981L354.857 75.357C353.555 74.0553 351.445 74.0553 350.143 75.357L346.423 79.0774C346.097 79.4029 345.57 79.4029 345.244 79.0774L334.857 68.6904C333.555 67.3886 331.445 67.3886 330.143 68.6904L327.5 71.3333V69.6667C327.5 67.3056 327.501 65.6351 327.608 64.3291C327.713 63.0425 327.912 62.2573 328.227 61.6401C328.866 60.3857 329.886 59.3658 331.14 58.7266Z" fill="#7C8B9D"/>
<path d="M342.5 65.5C342.5 63.1988 344.365 61.3333 346.667 61.3333C348.968 61.3333 350.833 63.1988 350.833 65.5C350.833 67.8012 348.968 69.6667 346.667 69.6667C344.365 69.6667 342.5 67.8012 342.5 65.5Z" stroke="#7C8B9D" stroke-width="1.67"/>
<path fill-rule="evenodd" clip-rule="evenodd" d="M339.094 54.6667C336.822 54.6667 335.015 54.6666 333.558 54.7857C332.065 54.9077 330.792 55.1628 329.627 55.7566C327.745 56.7153 326.215 58.2451 325.257 60.1268C324.663 61.2922 324.408 62.565 324.286 64.0576C324.167 65.5153 324.167 67.322 324.167 69.5937V76.4063C324.167 78.678 324.167 80.4847 324.286 81.9424C324.408 83.435 324.663 84.7078 325.257 85.8732C326.215 87.7549 327.745 89.2847 329.627 90.2434C330.792 90.8372 332.065 91.0923 333.558 91.2143C335.015 91.3334 336.822 91.3334 339.094 91.3333H345.906C348.178 91.3334 349.985 91.3334 351.442 91.2143C352.935 91.0923 354.208 90.8372 355.373 90.2434C357.255 89.2847 358.785 87.7549 359.743 85.8732C360.337 84.7078 360.592 83.435 360.714 81.9424C360.833 80.4848 360.833 78.6781 360.833 76.4065V69.5937C360.833 67.322 360.833 65.5152 360.714 64.0576C360.592 62.565 360.337 61.2922 359.743 60.1268C358.785 58.2451 357.255 56.7153 355.373 55.7566C354.208 55.1628 352.935 54.9077 351.442 54.7857C349.985 54.6666 348.178 54.6667 345.906 54.6667H339.094ZM331.14 58.7266C331.757 58.4122 332.543 58.2131 333.829 58.108C335.135 58.0013 336.806 58 339.167 58H345.833C348.194 58 349.865 58.0013 351.171 58.108C352.457 58.2131 353.243 58.4122 353.86 58.7266C355.114 59.3658 356.134 60.3857 356.773 61.6401C357.088 62.2573 357.287 63.0425 357.392 64.3291C357.499 65.6351 357.5 67.3056 357.5 69.6667V76.3333C357.5 76.9307 357.5 77.4838 357.498 77.9981L354.857 75.357C353.555 74.0553 351.445 74.0553 350.143 75.357L346.423 79.0774C346.097 79.4029 345.57 79.4029 345.244 79.0774L334.857 68.6904C333.555 67.3886 331.445 67.3886 330.143 68.6904L327.5 71.3333V69.6667C327.5 67.3056 327.501 65.6351 327.608 64.3291C327.713 63.0425 327.912 62.2573 328.227 61.6401C328.866 60.3857 329.886 59.3658 331.14 58.7266Z" stroke="#7C8B9D" stroke-width="1.67"/>
<rect x="418" y="14" width="106" height="129" rx="10" fill="#D1D9E2"/>
<path d="M471 71C471 68.6988 472.865 66.8333 475.167 66.8333C477.468 66.8333 479.333 68.6988 479.333 71C479.333 73.3012 477.468 75.1667 475.167 75.1667C472.865 75.1667 471 73.3012 471 71Z" fill="#7C8B9D"/>
<path fill-rule="evenodd" clip-rule="evenodd" d="M467.594 60.1667C465.322 60.1667 463.515 60.1666 462.058 60.2857C460.565 60.4077 459.292 60.6628 458.127 61.2566C456.245 62.2153 454.715 63.7451 453.757 65.6268C453.163 66.7922 452.908 68.065 452.786 69.5576C452.667 71.0153 452.667 72.822 452.667 75.0937V81.9063C452.667 84.178 452.667 85.9847 452.786 87.4424C452.908 88.935 453.163 90.2078 453.757 91.3732C454.715 93.2549 456.245 94.7847 458.127 95.7434C459.292 96.3372 460.565 96.5923 462.058 96.7143C463.515 96.8334 465.322 96.8334 467.594 96.8333H474.406C476.678 96.8334 478.485 96.8334 479.942 96.7143C481.435 96.5923 482.708 96.3372 483.873 95.7434C485.755 94.7847 487.285 93.2549 488.243 91.3732C488.837 90.2078 489.092 88.935 489.214 87.4424C489.333 85.9848 489.333 84.1781 489.333 81.9065V75.0937C489.333 72.822 489.333 71.0152 489.214 69.5576C489.092 68.065 488.837 66.7922 488.243 65.6268C487.285 63.7451 485.755 62.2153 483.873 61.2566C482.708 60.6628 481.435 60.4077 479.942 60.2857C478.485 60.1666 476.678 60.1667 474.406 60.1667H467.594ZM459.64 64.2266C460.257 63.9122 461.043 63.7131 462.329 63.608C463.635 63.5013 465.306 63.5 467.667 63.5H474.333C476.694 63.5 478.365 63.5013 479.671 63.608C480.957 63.7131 481.743 63.9122 482.36 64.2266C483.614 64.8658 484.634 65.8857 485.273 67.1401C485.588 67.7573 485.787 68.5425 485.892 69.8291C485.999 71.1351 486 72.8056 486 75.1667V81.8333C486 82.4307 486 82.9838 485.998 83.4981L483.357 80.857C482.055 79.5553 479.945 79.5553 478.643 80.857L474.923 84.5774C474.597 84.9029 474.07 84.9029 473.744 84.5774L463.357 74.1904C462.055 72.8886 459.945 72.8886 458.643 74.1904L456 76.8333V75.1667C456 72.8056 456.001 71.1351 456.108 69.8291C456.213 68.5425 456.412 67.7573 456.727 67.1401C457.366 65.8857 458.386 64.8658 459.64 64.2266Z" fill="#7C8B9D"/>
<path d="M471 71C471 68.6988 472.865 66.8333 475.167 66.8333C477.468 66.8333 479.333 68.6988 479.333 71C479.333 73.3012 477.468 75.1667 475.167 75.1667C472.865 75.1667 471 73.3012 471 71Z" stroke="#7C8B9D" stroke-width="1.67"/>
<path fill-rule="evenodd" clip-rule="evenodd" d="M467.594 60.1667C465.322 60.1667 463.515 60.1666 462.058 60.2857C460.565 60.4077 459.292 60.6628 458.127 61.2566C456.245 62.2153 454.715 63.7451 453.757 65.6268C453.163 66.7922 452.908 68.065 452.786 69.5576C452.667 71.0153 452.667 72.822 452.667 75.0937V81.9063C452.667 84.178 452.667 85.9847 452.786 87.4424C452.908 88.935 453.163 90.2078 453.757 91.3732C454.715 93.2549 456.245 94.7847 458.127 95.7434C459.292 96.3372 460.565 96.5923 462.058 96.7143C463.515 96.8334 465.322 96.8334 467.594 96.8333H474.406C476.678 96.8334 478.485 96.8334 479.942 96.7143C481.435 96.5923 482.708 96.3372 483.873 95.7434C485.755 94.7847 487.285 93.2549 488.243 91.3732C488.837 90.2078 489.092 88.935 489.214 87.4424C489.333 85.9848 489.333 84.1781 489.333 81.9065V75.0937C489.333 72.822 489.333 71.0152 489.214 69.5576C489.092 68.065 488.837 66.7922 488.243 65.6268C487.285 63.7451 485.755 62.2153 483.873 61.2566C482.708 60.6628 481.435 60.4077 479.942 60.2857C478.485 60.1666 476.678 60.1667 474.406 60.1667H467.594ZM459.64 64.2266C460.257 63.9122 461.043 63.7131 462.329 63.608C463.635 63.5013 465.306 63.5 467.667 63.5H474.333C476.694 63.5 478.365 63.5013 479.671 63.608C480.957 63.7131 481.743 63.9122 482.36 64.2266C483.614 64.8658 484.634 65.8857 485.273 67.1401C485.588 67.7573 485.787 68.5425 485.892 69.8291C485.999 71.1351 486 72.8056 486 75.1667V81.8333C486 82.4307 486 82.9838 485.998 83.4981L483.357 80.857C482.055 79.5553 479.945 79.5553 478.643 80.857L474.923 84.5774C474.597 84.9029 474.07 84.9029 473.744 84.5774L463.357 74.1904C462.055 72.8886 459.945 72.8886 458.643 74.1904L456 76.8333V75.1667C456 72.8056 456.001 71.1351 456.108 69.8291C456.213 68.5425 456.412 67.7573 456.727 67.1401C457.366 65.8857 458.386 64.8658 459.64 64.2266Z" stroke="#7C8B9D" stroke-width="1.67"/>
<rect x="158" y="102" width="109" height="95" rx="10" fill="#D1D9E2"/>
<path d="M212.5 142C212.5 139.699 214.365 137.833 216.667 137.833C218.968 137.833 220.833 139.699 220.833 142C220.833 144.301 218.968 146.167 216.667 146.167C214.365 146.167 212.5 144.301 212.5 142Z" fill="#7C8B9D"/>
<path fill-rule="evenodd" clip-rule="evenodd" d="M209.094 131.167C206.822 131.167 205.015 131.167 203.558 131.286C202.065 131.408 200.792 131.663 199.627 132.257C197.745 133.215 196.215 134.745 195.257 136.627C194.663 137.792 194.408 139.065 194.286 140.558C194.167 142.015 194.167 143.822 194.167 146.094V152.906C194.167 155.178 194.167 156.985 194.286 158.442C194.408 159.935 194.663 161.208 195.257 162.373C196.215 164.255 197.745 165.785 199.627 166.743C200.792 167.337 202.065 167.592 203.558 167.714C205.015 167.833 206.822 167.833 209.094 167.833H215.906C218.178 167.833 219.985 167.833 221.442 167.714C222.935 167.592 224.208 167.337 225.373 166.743C227.255 165.785 228.785 164.255 229.743 162.373C230.337 161.208 230.592 159.935 230.714 158.442C230.833 156.985 230.833 155.178 230.833 152.906V146.094C230.833 143.822 230.833 142.015 230.714 140.558C230.592 139.065 230.337 137.792 229.743 136.627C228.785 134.745 227.255 133.215 225.373 132.257C224.208 131.663 222.935 131.408 221.442 131.286C219.985 131.167 218.178 131.167 215.906 131.167H209.094ZM201.14 135.227C201.757 134.912 202.543 134.713 203.829 134.608C205.135 134.501 206.806 134.5 209.167 134.5H215.833C218.194 134.5 219.865 134.501 221.171 134.608C222.457 134.713 223.243 134.912 223.86 135.227C225.114 135.866 226.134 136.886 226.773 138.14C227.088 138.757 227.287 139.543 227.392 140.829C227.499 142.135 227.5 143.806 227.5 146.167V152.833C227.5 153.431 227.5 153.984 227.498 154.498L224.857 151.857C223.555 150.555 221.445 150.555 220.143 151.857L216.423 155.577C216.097 155.903 215.57 155.903 215.244 155.577L204.857 145.19C203.555 143.889 201.445 143.889 200.143 145.19L197.5 147.833V146.167C197.5 143.806 197.501 142.135 197.608 140.829C197.713 139.543 197.912 138.757 198.227 138.14C198.866 136.886 199.886 135.866 201.14 135.227Z" fill="#7C8B9D"/>
<path d="M212.5 142C212.5 139.699 214.365 137.833 216.667 137.833C218.968 137.833 220.833 139.699 220.833 142C220.833 144.301 218.968 146.167 216.667 146.167C214.365 146.167 212.5 144.301 212.5 142Z" stroke="#7C8B9D" stroke-width="1.67"/>
<path fill-rule="evenodd" clip-rule="evenodd" d="M209.094 131.167C206.822 131.167 205.015 131.167 203.558 131.286C202.065 131.408 200.792 131.663 199.627 132.257C197.745 133.215 196.215 134.745 195.257 136.627C194.663 137.792 194.408 139.065 194.286 140.558C194.167 142.015 194.167 143.822 194.167 146.094V152.906C194.167 155.178 194.167 156.985 194.286 158.442C194.408 159.935 194.663 161.208 195.257 162.373C196.215 164.255 197.745 165.785 199.627 166.743C200.792 167.337 202.065 167.592 203.558 167.714C205.015 167.833 206.822 167.833 209.094 167.833H215.906C218.178 167.833 219.985 167.833 221.442 167.714C222.935 167.592 224.208 167.337 225.373 166.743C227.255 165.785 228.785 164.255 229.743 162.373C230.337 161.208 230.592 159.935 230.714 158.442C230.833 156.985 230.833 155.178 230.833 152.906V146.094C230.833 143.822 230.833 142.015 230.714 140.558C230.592 139.065 230.337 137.792 229.743 136.627C228.785 134.745 227.255 133.215 225.373 132.257C224.208 131.663 222.935 131.408 221.442 131.286C219.985 131.167 218.178 131.167 215.906 131.167H209.094ZM201.14 135.227C201.757 134.912 202.543 134.713 203.829 134.608C205.135 134.501 206.806 134.5 209.167 134.5H215.833C218.194 134.5 219.865 134.501 221.171 134.608C222.457 134.713 223.243 134.912 223.86 135.227C225.114 135.866 226.134 136.886 226.773 138.14C227.088 138.757 227.287 139.543 227.392 140.829C227.499 142.135 227.5 143.806 227.5 146.167V152.833C227.5 153.431 227.5 153.984 227.498 154.498L224.857 151.857C223.555 150.555 221.445 150.555 220.143 151.857L216.423 155.577C216.097 155.903 215.57 155.903 215.244 155.577L204.857 145.19C203.555 143.889 201.445 143.889 200.143 145.19L197.5 147.833V146.167C197.5 143.806 197.501 142.135 197.608 140.829C197.713 139.543 197.912 138.757 198.227 138.14C198.866 136.886 199.886 135.866 201.14 135.227Z" stroke="#7C8B9D" stroke-width="1.67"/>
<rect x="419" y="150" width="105" height="93" rx="10" fill="#D1D9E2"/>
<path d="M471.5 189C471.5 186.699 473.365 184.833 475.667 184.833C477.968 184.833 479.833 186.699 479.833 189C479.833 191.301 477.968 193.167 475.667 193.167C473.365 193.167 471.5 191.301 471.5 189Z" fill="#7C8B9D"/>
<path fill-rule="evenodd" clip-rule="evenodd" d="M468.094 178.167C465.822 178.167 464.015 178.167 462.558 178.286C461.065 178.408 459.792 178.663 458.627 179.257C456.745 180.215 455.215 181.745 454.257 183.627C453.663 184.792 453.408 186.065 453.286 187.558C453.167 189.015 453.167 190.822 453.167 193.094V199.906C453.167 202.178 453.167 203.985 453.286 205.442C453.408 206.935 453.663 208.208 454.257 209.373C455.215 211.255 456.745 212.785 458.627 213.743C459.792 214.337 461.065 214.592 462.558 214.714C464.015 214.833 465.822 214.833 468.094 214.833H474.906C477.178 214.833 478.985 214.833 480.442 214.714C481.935 214.592 483.208 214.337 484.373 213.743C486.255 212.785 487.785 211.255 488.743 209.373C489.337 208.208 489.592 206.935 489.714 205.442C489.833 203.985 489.833 202.178 489.833 199.906V193.094C489.833 190.822 489.833 189.015 489.714 187.558C489.592 186.065 489.337 184.792 488.743 183.627C487.785 181.745 486.255 180.215 484.373 179.257C483.208 178.663 481.935 178.408 480.442 178.286C478.985 178.167 477.178 178.167 474.906 178.167H468.094ZM460.14 182.227C460.757 181.912 461.543 181.713 462.829 181.608C464.135 181.501 465.806 181.5 468.167 181.5H474.833C477.194 181.5 478.865 181.501 480.171 181.608C481.457 181.713 482.243 181.912 482.86 182.227C484.114 182.866 485.134 183.886 485.773 185.14C486.088 185.757 486.287 186.543 486.392 187.829C486.499 189.135 486.5 190.806 486.5 193.167V199.833C486.5 200.431 486.5 200.984 486.498 201.498L483.857 198.857C482.555 197.555 480.445 197.555 479.143 198.857L475.423 202.577C475.097 202.903 474.57 202.903 474.244 202.577L463.857 192.19C462.555 190.889 460.445 190.889 459.143 192.19L456.5 194.833V193.167C456.5 190.806 456.501 189.135 456.608 187.829C456.713 186.543 456.912 185.757 457.227 185.14C457.866 183.886 458.886 182.866 460.14 182.227Z" fill="#7C8B9D"/>
<path d="M471.5 189C471.5 186.699 473.365 184.833 475.667 184.833C477.968 184.833 479.833 186.699 479.833 189C479.833 191.301 477.968 193.167 475.667 193.167C473.365 193.167 471.5 191.301 471.5 189Z" stroke="#7C8B9D" stroke-width="1.67"/>
<path fill-rule="evenodd" clip-rule="evenodd" d="M468.094 178.167C465.822 178.167 464.015 178.167 462.558 178.286C461.065 178.408 459.792 178.663 458.627 179.257C456.745 180.215 455.215 181.745 454.257 183.627C453.663 184.792 453.408 186.065 453.286 187.558C453.167 189.015 453.167 190.822 453.167 193.094V199.906C453.167 202.178 453.167 203.985 453.286 205.442C453.408 206.935 453.663 208.208 454.257 209.373C455.215 211.255 456.745 212.785 458.627 213.743C459.792 214.337 461.065 214.592 462.558 214.714C464.015 214.833 465.822 214.833 468.094 214.833H474.906C477.178 214.833 478.985 214.833 480.442 214.714C481.935 214.592 483.208 214.337 484.373 213.743C486.255 212.785 487.785 211.255 488.743 209.373C489.337 208.208 489.592 206.935 489.714 205.442C489.833 203.985 489.833 202.178 489.833 199.906V193.094C489.833 190.822 489.833 189.015 489.714 187.558C489.592 186.065 489.337 184.792 488.743 183.627C487.785 181.745 486.255 180.215 484.373 179.257C483.208 178.663 481.935 178.408 480.442 178.286C478.985 178.167 477.178 178.167 474.906 178.167H468.094ZM460.14 182.227C460.757 181.912 461.543 181.713 462.829 181.608C464.135 181.501 465.806 181.5 468.167 181.5H474.833C477.194 181.5 478.865 181.501 480.171 181.608C481.457 181.713 482.243 181.912 482.86 182.227C484.114 182.866 485.134 183.886 485.773 185.14C486.088 185.757 486.287 186.543 486.392 187.829C486.499 189.135 486.5 190.806 486.5 193.167V199.833C486.5 200.431 486.5 200.984 486.498 201.498L483.857 198.857C482.555 197.555 480.445 197.555 479.143 198.857L475.423 202.577C475.097 202.903 474.57 202.903 474.244 202.577L463.857 192.19C462.555 190.889 460.445 190.889 459.143 192.19L456.5 194.833V193.167C456.5 190.806 456.501 189.135 456.608 187.829C456.713 186.543 456.912 185.757 457.227 185.14C457.866 183.886 458.886 182.866 460.14 182.227Z" stroke="#7C8B9D" stroke-width="1.67"/>
<rect x="276" y="138" width="135" height="83" rx="10" fill="#D1D9E2"/>
<path d="M343.5 172C343.5 169.699 345.365 167.833 347.667 167.833C349.968 167.833 351.833 169.699 351.833 172C351.833 174.301 349.968 176.167 347.667 176.167C345.365 176.167 343.5 174.301 343.5 172Z" fill="#7C8B9D"/>
<path fill-rule="evenodd" clip-rule="evenodd" d="M340.094 161.167C337.822 161.167 336.015 161.167 334.558 161.286C333.065 161.408 331.792 161.663 330.627 162.257C328.745 163.215 327.215 164.745 326.257 166.627C325.663 167.792 325.408 169.065 325.286 170.558C325.167 172.015 325.167 173.822 325.167 176.094V182.906C325.167 185.178 325.167 186.985 325.286 188.442C325.408 189.935 325.663 191.208 326.257 192.373C327.215 194.255 328.745 195.785 330.627 196.743C331.792 197.337 333.065 197.592 334.558 197.714C336.015 197.833 337.822 197.833 340.094 197.833H346.906C349.178 197.833 350.985 197.833 352.442 197.714C353.935 197.592 355.208 197.337 356.373 196.743C358.255 195.785 359.785 194.255 360.743 192.373C361.337 191.208 361.592 189.935 361.714 188.442C361.833 186.985 361.833 185.178 361.833 182.906V176.094C361.833 173.822 361.833 172.015 361.714 170.558C361.592 169.065 361.337 167.792 360.743 166.627C359.785 164.745 358.255 163.215 356.373 162.257C355.208 161.663 353.935 161.408 352.442 161.286C350.985 161.167 349.178 161.167 346.906 161.167H340.094ZM332.14 165.227C332.757 164.912 333.543 164.713 334.829 164.608C336.135 164.501 337.806 164.5 340.167 164.5H346.833C349.194 164.5 350.865 164.501 352.171 164.608C353.457 164.713 354.243 164.912 354.86 165.227C356.114 165.866 357.134 166.886 357.773 168.14C358.088 168.757 358.287 169.543 358.392 170.829C358.499 172.135 358.5 173.806 358.5 176.167V182.833C358.5 183.431 358.5 183.984 358.498 184.498L355.857 181.857C354.555 180.555 352.445 180.555 351.143 181.857L347.423 185.577C347.097 185.903 346.57 185.903 346.244 185.577L335.857 175.19C334.555 173.889 332.445 173.889 331.143 175.19L328.5 177.833V176.167C328.5 173.806 328.501 172.135 328.608 170.829C328.713 169.543 328.912 168.757 329.227 168.14C329.866 166.886 330.886 165.866 332.14 165.227Z" fill="#7C8B9D"/>
<path d="M343.5 172C343.5 169.699 345.365 167.833 347.667 167.833C349.968 167.833 351.833 169.699 351.833 172C351.833 174.301 349.968 176.167 347.667 176.167C345.365 176.167 343.5 174.301 343.5 172Z" stroke="#7C8B9D" stroke-width="1.67"/>
<path fill-rule="evenodd" clip-rule="evenodd" d="M340.094 161.167C337.822 161.167 336.015 161.167 334.558 161.286C333.065 161.408 331.792 161.663 330.627 162.257C328.745 163.215 327.215 164.745 326.257 166.627C325.663 167.792 325.408 169.065 325.286 170.558C325.167 172.015 325.167 173.822 325.167 176.094V182.906C325.167 185.178 325.167 186.985 325.286 188.442C325.408 189.935 325.663 191.208 326.257 192.373C327.215 194.255 328.745 195.785 330.627 196.743C331.792 197.337 333.065 197.592 334.558 197.714C336.015 197.833 337.822 197.833 340.094 197.833H346.906C349.178 197.833 350.985 197.833 352.442 197.714C353.935 197.592 355.208 197.337 356.373 196.743C358.255 195.785 359.785 194.255 360.743 192.373C361.337 191.208 361.592 189.935 361.714 188.442C361.833 186.985 361.833 185.178 361.833 182.906V176.094C361.833 173.822 361.833 172.015 361.714 170.558C361.592 169.065 361.337 167.792 360.743 166.627C359.785 164.745 358.255 163.215 356.373 162.257C355.208 161.663 353.935 161.408 352.442 161.286C350.985 161.167 349.178 161.167 346.906 161.167H340.094ZM332.14 165.227C332.757 164.912 333.543 164.713 334.829 164.608C336.135 164.501 337.806 164.5 340.167 164.5H346.833C349.194 164.5 350.865 164.501 352.171 164.608C353.457 164.713 354.243 164.912 354.86 165.227C356.114 165.866 357.134 166.886 357.773 168.14C358.088 168.757 358.287 169.543 358.392 170.829C358.499 172.135 358.5 173.806 358.5 176.167V182.833C358.5 183.431 358.5 183.984 358.498 184.498L355.857 181.857C354.555 180.555 352.445 180.555 351.143 181.857L347.423 185.577C347.097 185.903 346.57 185.903 346.244 185.577L335.857 175.19C334.555 173.889 332.445 173.889 331.143 175.19L328.5 177.833V176.167C328.5 173.806 328.501 172.135 328.608 170.829C328.713 169.543 328.912 168.757 329.227 168.14C329.866 166.886 330.886 165.866 332.14 165.227Z" stroke="#7C8B9D" stroke-width="1.67"/>
<rect x="276" y="228" width="135" height="116" rx="10" fill="#D1D9E2"/>
<path d="M343.5 278.5C343.5 276.199 345.365 274.333 347.667 274.333C349.968 274.333 351.833 276.199 351.833 278.5C351.833 280.801 349.968 282.667 347.667 282.667C345.365 282.667 343.5 280.801 343.5 278.5Z" fill="#7C8B9D"/>
<path fill-rule="evenodd" clip-rule="evenodd" d="M340.094 267.667C337.822 267.667 336.015 267.667 334.558 267.786C333.065 267.908 331.792 268.163 330.627 268.757C328.745 269.715 327.215 271.245 326.257 273.127C325.663 274.292 325.408 275.565 325.286 277.058C325.167 278.515 325.167 280.322 325.167 282.594V289.406C325.167 291.678 325.167 293.485 325.286 294.942C325.408 296.435 325.663 297.708 326.257 298.873C327.215 300.755 328.745 302.285 330.627 303.243C331.792 303.837 333.065 304.092 334.558 304.214C336.015 304.333 337.822 304.333 340.094 304.333H346.906C349.178 304.333 350.985 304.333 352.442 304.214C353.935 304.092 355.208 303.837 356.373 303.243C358.255 302.285 359.785 300.755 360.743 298.873C361.337 297.708 361.592 296.435 361.714 294.942C361.833 293.485 361.833 291.678 361.833 289.406V282.594C361.833 280.322 361.833 278.515 361.714 277.058C361.592 275.565 361.337 274.292 360.743 273.127C359.785 271.245 358.255 269.715 356.373 268.757C355.208 268.163 353.935 267.908 352.442 267.786C350.985 267.667 349.178 267.667 346.906 267.667H340.094ZM332.14 271.727C332.757 271.412 333.543 271.213 334.829 271.108C336.135 271.001 337.806 271 340.167 271H346.833C349.194 271 350.865 271.001 352.171 271.108C353.457 271.213 354.243 271.412 354.86 271.727C356.114 272.366 357.134 273.386 357.773 274.64C358.088 275.257 358.287 276.043 358.392 277.329C358.499 278.635 358.5 280.306 358.5 282.667V289.333C358.5 289.931 358.5 290.484 358.498 290.998L355.857 288.357C354.555 287.055 352.445 287.055 351.143 288.357L347.423 292.077C347.097 292.403 346.57 292.403 346.244 292.077L335.857 281.69C334.555 280.389 332.445 280.389 331.143 281.69L328.5 284.333V282.667C328.5 280.306 328.501 278.635 328.608 277.329C328.713 276.043 328.912 275.257 329.227 274.64C329.866 273.386 330.886 272.366 332.14 271.727Z" fill="#7C8B9D"/>
<path d="M343.5 278.5C343.5 276.199 345.365 274.333 347.667 274.333C349.968 274.333 351.833 276.199 351.833 278.5C351.833 280.801 349.968 282.667 347.667 282.667C345.365 282.667 343.5 280.801 343.5 278.5Z" stroke="#7C8B9D" stroke-width="1.67"/>
<path fill-rule="evenodd" clip-rule="evenodd" d="M340.094 267.667C337.822 267.667 336.015 267.667 334.558 267.786C333.065 267.908 331.792 268.163 330.627 268.757C328.745 269.715 327.215 271.245 326.257 273.127C325.663 274.292 325.408 275.565 325.286 277.058C325.167 278.515 325.167 280.322 325.167 282.594V289.406C325.167 291.678 325.167 293.485 325.286 294.942C325.408 296.435 325.663 297.708 326.257 298.873C327.215 300.755 328.745 302.285 330.627 303.243C331.792 303.837 333.065 304.092 334.558 304.214C336.015 304.333 337.822 304.333 340.094 304.333H346.906C349.178 304.333 350.985 304.333 352.442 304.214C353.935 304.092 355.208 303.837 356.373 303.243C358.255 302.285 359.785 300.755 360.743 298.873C361.337 297.708 361.592 296.435 361.714 294.942C361.833 293.485 361.833 291.678 361.833 289.406V282.594C361.833 280.322 361.833 278.515 361.714 277.058C361.592 275.565 361.337 274.292 360.743 273.127C359.785 271.245 358.255 269.715 356.373 268.757C355.208 268.163 353.935 267.908 352.442 267.786C350.985 267.667 349.178 267.667 346.906 267.667H340.094ZM332.14 271.727C332.757 271.412 333.543 271.213 334.829 271.108C336.135 271.001 337.806 271 340.167 271H346.833C349.194 271 350.865 271.001 352.171 271.108C353.457 271.213 354.243 271.412 354.86 271.727C356.114 272.366 357.134 273.386 357.773 274.64C358.088 275.257 358.287 276.043 358.392 277.329C358.499 278.635 358.5 280.306 358.5 282.667V289.333C358.5 289.931 358.5 290.484 358.498 290.998L355.857 288.357C354.555 287.055 352.445 287.055 351.143 288.357L347.423 292.077C347.097 292.403 346.57 292.403 346.244 292.077L335.857 281.69C334.555 280.389 332.445 280.389 331.143 281.69L328.5 284.333V282.667C328.5 280.306 328.501 278.635 328.608 277.329C328.713 276.043 328.912 275.257 329.227 274.64C329.866 273.386 330.886 272.366 332.14 271.727Z" stroke="#7C8B9D" stroke-width="1.67"/>
<rect x="33" y="35" width="75" height="75" rx="37.5" fill="#7C8B9D"/>
<path d="M70.5 69.875C70.5 69.0696 71.1529 68.4167 71.9583 68.4167C72.7638 68.4167 73.4167 69.0696 73.4167 69.875C73.4167 70.6804 72.7638 71.3333 71.9583 71.3333C71.1529 71.3333 70.5 70.6804 70.5 69.875Z" fill="white"/>
<path fill-rule="evenodd" clip-rule="evenodd" d="M69.3078 66.0833C68.5127 66.0833 67.8804 66.0833 67.3702 66.125C66.8477 66.1677 66.4023 66.257 65.9944 66.4648C65.3358 66.8004 64.8004 67.3358 64.4648 67.9944C64.257 68.4023 64.1677 68.8477 64.125 69.3702C64.0833 69.8803 64.0833 70.5127 64.0833 71.3078V73.6922C64.0833 74.4873 64.0833 75.1196 64.125 75.6298C64.1677 76.1523 64.257 76.5977 64.4648 77.0056C64.8004 77.6642 65.3358 78.1996 65.9944 78.5352C66.4023 78.743 66.8477 78.8323 67.3702 78.875C67.8803 78.9167 68.5127 78.9167 69.3078 78.9167H71.6922C72.4873 78.9167 73.1197 78.9167 73.6298 78.875C74.1523 78.8323 74.5977 78.743 75.0056 78.5352C75.6642 78.1996 76.1996 77.6642 76.5352 77.0056C76.743 76.5977 76.8323 76.1523 76.875 75.6298C76.9167 75.1197 76.9167 74.4873 76.9167 73.6923V71.3078C76.9167 70.5127 76.9167 69.8803 76.875 69.3702C76.8323 68.8477 76.743 68.4023 76.5352 67.9944C76.1996 67.3358 75.6642 66.8004 75.0056 66.4648C74.5977 66.257 74.1523 66.1677 73.6298 66.125C73.1197 66.0833 72.4873 66.0833 71.6922 66.0833H69.3078ZM66.524 67.5043C66.74 67.3942 67.0149 67.3246 67.4652 67.2878C67.9223 67.2504 68.507 67.25 69.3333 67.25H71.6667C72.493 67.25 73.0777 67.2504 73.5348 67.2878C73.9851 67.3246 74.26 67.3942 74.476 67.5043C74.915 67.728 75.272 68.085 75.4957 68.524C75.6058 68.74 75.6754 69.0149 75.7122 69.4652C75.7496 69.9223 75.75 70.507 75.75 71.3333V73.6667C75.75 73.8757 75.75 74.0693 75.7493 74.2493L74.825 73.325C74.3694 72.8693 73.6307 72.8693 73.1751 73.325L71.8729 74.6271C71.759 74.741 71.5743 74.741 71.4604 74.6271L67.825 70.9916C67.3694 70.536 66.6307 70.536 66.1751 70.9916L65.25 71.9167V71.3333C65.25 70.507 65.2505 69.9223 65.2878 69.4652C65.3246 69.0149 65.3943 68.74 65.5043 68.524C65.728 68.085 66.085 67.728 66.524 67.5043Z" fill="white"/>
<rect x="158" y="204" width="109" height="140" rx="10" fill="#D1D9E2"/>
<path d="M212.5 266.5C212.5 264.199 214.365 262.333 216.667 262.333C218.968 262.333 220.833 264.199 220.833 266.5C220.833 268.801 218.968 270.667 216.667 270.667C214.365 270.667 212.5 268.801 212.5 266.5Z" fill="#7C8B9D"/>
<path fill-rule="evenodd" clip-rule="evenodd" d="M209.094 255.667C206.822 255.667 205.015 255.667 203.558 255.786C202.065 255.908 200.792 256.163 199.627 256.757C197.745 257.715 196.215 259.245 195.257 261.127C194.663 262.292 194.408 263.565 194.286 265.058C194.167 266.515 194.167 268.322 194.167 270.594V277.406C194.167 279.678 194.167 281.485 194.286 282.942C194.408 284.435 194.663 285.708 195.257 286.873C196.215 288.755 197.745 290.285 199.627 291.243C200.792 291.837 202.065 292.092 203.558 292.214C205.015 292.333 206.822 292.333 209.094 292.333H215.906C218.178 292.333 219.985 292.333 221.442 292.214C222.935 292.092 224.208 291.837 225.373 291.243C227.255 290.285 228.785 288.755 229.743 286.873C230.337 285.708 230.592 284.435 230.714 282.942C230.833 281.485 230.833 279.678 230.833 277.406V270.594C230.833 268.322 230.833 266.515 230.714 265.058C230.592 263.565 230.337 262.292 229.743 261.127C228.785 259.245 227.255 257.715 225.373 256.757C224.208 256.163 222.935 255.908 221.442 255.786C219.985 255.667 218.178 255.667 215.906 255.667H209.094ZM201.14 259.727C201.757 259.412 202.543 259.213 203.829 259.108C205.135 259.001 206.806 259 209.167 259H215.833C218.194 259 219.865 259.001 221.171 259.108C222.457 259.213 223.243 259.412 223.86 259.727C225.114 260.366 226.134 261.386 226.773 262.64C227.088 263.257 227.287 264.043 227.392 265.329C227.499 266.635 227.5 268.306 227.5 270.667V277.333C227.5 277.931 227.5 278.484 227.498 278.998L224.857 276.357C223.555 275.055 221.445 275.055 220.143 276.357L216.423 280.077C216.097 280.403 215.57 280.403 215.244 280.077L204.857 269.69C203.555 268.389 201.445 268.389 200.143 269.69L197.5 272.333V270.667C197.5 268.306 197.501 266.635 197.608 265.329C197.713 264.043 197.912 263.257 198.227 262.64C198.866 261.386 199.886 260.366 201.14 259.727Z" fill="#7C8B9D"/>
<path d="M212.5 266.5C212.5 264.199 214.365 262.333 216.667 262.333C218.968 262.333 220.833 264.199 220.833 266.5C220.833 268.801 218.968 270.667 216.667 270.667C214.365 270.667 212.5 268.801 212.5 266.5Z" stroke="#7C8B9D" stroke-width="1.67"/>
<path fill-rule="evenodd" clip-rule="evenodd" d="M209.094 255.667C206.822 255.667 205.015 255.667 203.558 255.786C202.065 255.908 200.792 256.163 199.627 256.757C197.745 257.715 196.215 259.245 195.257 261.127C194.663 262.292 194.408 263.565 194.286 265.058C194.167 266.515 194.167 268.322 194.167 270.594V277.406C194.167 279.678 194.167 281.485 194.286 282.942C194.408 284.435 194.663 285.708 195.257 286.873C196.215 288.755 197.745 290.285 199.627 291.243C200.792 291.837 202.065 292.092 203.558 292.214C205.015 292.333 206.822 292.333 209.094 292.333H215.906C218.178 292.333 219.985 292.333 221.442 292.214C222.935 292.092 224.208 291.837 225.373 291.243C227.255 290.285 228.785 288.755 229.743 286.873C230.337 285.708 230.592 284.435 230.714 282.942C230.833 281.485 230.833 279.678 230.833 277.406V270.594C230.833 268.322 230.833 266.515 230.714 265.058C230.592 263.565 230.337 262.292 229.743 261.127C228.785 259.245 227.255 257.715 225.373 256.757C224.208 256.163 222.935 255.908 221.442 255.786C219.985 255.667 218.178 255.667 215.906 255.667H209.094ZM201.14 259.727C201.757 259.412 202.543 259.213 203.829 259.108C205.135 259.001 206.806 259 209.167 259H215.833C218.194 259 219.865 259.001 221.171 259.108C222.457 259.213 223.243 259.412 223.86 259.727C225.114 260.366 226.134 261.386 226.773 262.64C227.088 263.257 227.287 264.043 227.392 265.329C227.499 266.635 227.5 268.306 227.5 270.667V277.333C227.5 277.931 227.5 278.484 227.498 278.998L224.857 276.357C223.555 275.055 221.445 275.055 220.143 276.357L216.423 280.077C216.097 280.403 215.57 280.403 215.244 280.077L204.857 269.69C203.555 268.389 201.445 268.389 200.143 269.69L197.5 272.333V270.667C197.5 268.306 197.501 266.635 197.608 265.329C197.713 264.043 197.912 263.257 198.227 262.64C198.866 261.386 199.886 260.366 201.14 259.727Z" stroke="#7C8B9D" stroke-width="1.67"/>
<rect x="421" y="250" width="103" height="94" rx="10" fill="#D1D9E2"/>
<path d="M472.5 289.5C472.5 287.199 474.365 285.333 476.667 285.333C478.968 285.333 480.833 287.199 480.833 289.5C480.833 291.801 478.968 293.667 476.667 293.667C474.365 293.667 472.5 291.801 472.5 289.5Z" fill="#7C8B9D"/>
<path fill-rule="evenodd" clip-rule="evenodd" d="M469.094 278.667C466.822 278.667 465.015 278.667 463.558 278.786C462.065 278.908 460.792 279.163 459.627 279.757C457.745 280.715 456.215 282.245 455.257 284.127C454.663 285.292 454.408 286.565 454.286 288.058C454.167 289.515 454.167 291.322 454.167 293.594V300.406C454.167 302.678 454.167 304.485 454.286 305.942C454.408 307.435 454.663 308.708 455.257 309.873C456.215 311.755 457.745 313.285 459.627 314.243C460.792 314.837 462.065 315.092 463.558 315.214C465.015 315.333 466.822 315.333 469.094 315.333H475.906C478.178 315.333 479.985 315.333 481.442 315.214C482.935 315.092 484.208 314.837 485.373 314.243C487.255 313.285 488.785 311.755 489.743 309.873C490.337 308.708 490.592 307.435 490.714 305.942C490.833 304.485 490.833 302.678 490.833 300.406V293.594C490.833 291.322 490.833 289.515 490.714 288.058C490.592 286.565 490.337 285.292 489.743 284.127C488.785 282.245 487.255 280.715 485.373 279.757C484.208 279.163 482.935 278.908 481.442 278.786C479.985 278.667 478.178 278.667 475.906 278.667H469.094ZM461.14 282.727C461.757 282.412 462.543 282.213 463.829 282.108C465.135 282.001 466.806 282 469.167 282H475.833C478.194 282 479.865 282.001 481.171 282.108C482.457 282.213 483.243 282.412 483.86 282.727C485.114 283.366 486.134 284.386 486.773 285.64C487.088 286.257 487.287 287.043 487.392 288.329C487.499 289.635 487.5 291.306 487.5 293.667V300.333C487.5 300.931 487.5 301.484 487.498 301.998L484.857 299.357C483.555 298.055 481.445 298.055 480.143 299.357L476.423 303.077C476.097 303.403 475.57 303.403 475.244 303.077L464.857 292.69C463.555 291.389 461.445 291.389 460.143 292.69L457.5 295.333V293.667C457.5 291.306 457.501 289.635 457.608 288.329C457.713 287.043 457.912 286.257 458.227 285.64C458.866 284.386 459.886 283.366 461.14 282.727Z" fill="#7C8B9D"/>
<path d="M472.5 289.5C472.5 287.199 474.365 285.333 476.667 285.333C478.968 285.333 480.833 287.199 480.833 289.5C480.833 291.801 478.968 293.667 476.667 293.667C474.365 293.667 472.5 291.801 472.5 289.5Z" stroke="#7C8B9D" stroke-width="1.67"/>
<path fill-rule="evenodd" clip-rule="evenodd" d="M469.094 278.667C466.822 278.667 465.015 278.667 463.558 278.786C462.065 278.908 460.792 279.163 459.627 279.757C457.745 280.715 456.215 282.245 455.257 284.127C454.663 285.292 454.408 286.565 454.286 288.058C454.167 289.515 454.167 291.322 454.167 293.594V300.406C454.167 302.678 454.167 304.485 454.286 305.942C454.408 307.435 454.663 308.708 455.257 309.873C456.215 311.755 457.745 313.285 459.627 314.243C460.792 314.837 462.065 315.092 463.558 315.214C465.015 315.333 466.822 315.333 469.094 315.333H475.906C478.178 315.333 479.985 315.333 481.442 315.214C482.935 315.092 484.208 314.837 485.373 314.243C487.255 313.285 488.785 311.755 489.743 309.873C490.337 308.708 490.592 307.435 490.714 305.942C490.833 304.485 490.833 302.678 490.833 300.406V293.594C490.833 291.322 490.833 289.515 490.714 288.058C490.592 286.565 490.337 285.292 489.743 284.127C488.785 282.245 487.255 280.715 485.373 279.757C484.208 279.163 482.935 278.908 481.442 278.786C479.985 278.667 478.178 278.667 475.906 278.667H469.094ZM461.14 282.727C461.757 282.412 462.543 282.213 463.829 282.108C465.135 282.001 466.806 282 469.167 282H475.833C478.194 282 479.865 282.001 481.171 282.108C482.457 282.213 483.243 282.412 483.86 282.727C485.114 283.366 486.134 284.386 486.773 285.64C487.088 286.257 487.287 287.043 487.392 288.329C487.499 289.635 487.5 291.306 487.5 293.667V300.333C487.5 300.931 487.5 301.484 487.498 301.998L484.857 299.357C483.555 298.055 481.445 298.055 480.143 299.357L476.423 303.077C476.097 303.403 475.57 303.403 475.244 303.077L464.857 292.69C463.555 291.389 461.445 291.389 460.143 292.69L457.5 295.333V293.667C457.5 291.306 457.501 289.635 457.608 288.329C457.713 287.043 457.912 286.257 458.227 285.64C458.866 284.386 459.886 283.366 461.14 282.727Z" stroke="#7C8B9D" stroke-width="1.67"/>
<rect x="19" y="122" width="103" height="14" rx="7" fill="#7C8B9D"/>
<rect x="19" y="312" width="103" height="14" rx="7" fill="#7C8B9D"/>
<rect x="19" y="142" width="84" height="10" rx="5" fill="#D1D9E2"/>
<rect x="19" y="158" width="71" height="10" rx="5" fill="#D1D9E2"/>
<rect x="21" y="177" width="10" height="10" rx="5" fill="#7C8B9D"/>
<rect x="56" y="177" width="10" height="10" rx="5" fill="#7C8B9D"/>
<rect x="38" y="177" width="10" height="10" rx="5" fill="#7C8B9D"/>
</svg>
